<?xml version="1.0" standalone="no"?>
<!DOCTYPE svg PUBLIC "-//W3C//DTD SVG 20010904//EN"
 "http://www.w3.org/TR/2001/REC-SVG-20010904/DTD/svg10.dtd">
<svg version="1.0" xmlns="http://www.w3.org/2000/svg"
 width="300.000000pt" height="490.000000pt" viewBox="0 0 300.000000 490.000000"
 preserveAspectRatio="xMidYMid meet">
<metadata>
Created by potrace 1.10, written by Peter Selinger 2001-2011
</metadata>
<g transform="translate(0.000000,490.000000) scale(0.100000,-0.100000)"
fill="#000000" stroke="none">
<path d="M2800 4893 c-29 -11 -50 -36 -50 -61 0 -13 11 -56 25 -93 62 -173 91
-442 75 -691 -42 -616 -312 -1214 -729 -1610 -85 -81 -290 -248 -304 -248 -2
0 -7 14 -11 31 -3 17 -20 60 -38 96 -80 163 -241 227 -347 137 -39 -33 -55
-83 -49 -158 13 -159 155 -316 285 -316 l43 0 0 -39 c0 -21 -7 -78 -15 -127
-53 -303 -255 -619 -565 -886 -203 -174 -445 -332 -732 -478 -81 -41 -148 -78
-148 -81 0 -23 140 34 275 111 22 12 63 35 92 51 62 33 93 51 107 61 6 4 63
42 126 84 109 73 197 137 264 194 105 88 265 254 333 345 99 131 164 238 190
310 6 17 23 62 37 100 31 83 53 184 60 276 6 78 -2 90 -78 108 -27 7 -61 18
-75 26 -43 22 -105 89 -130 141 -13 27 -27 57 -32 66 -5 10 -9 41 -9 70 0 95
66 165 145 152 100 -16 160 -76 228 -231 6 -13 19 -32 29 -43 16 -17 22 -18
46 -8 30 14 95 59 100 71 2 4 8 7 14 7 5 0 15 6 22 13 8 6 42 37 77 67 184
160 373 393 483 592 72 132 90 168 108 213 11 28 26 65 34 83 8 17 20 47 28
65 11 26 35 97 62 192 20 67 75 318 83 380 44 322 24 635 -55 874 -23 70 -25
85 -14 111 7 16 18 30 25 30 18 0 54 -46 62 -78 3 -14 12 -37 19 -51 8 -14 14
-33 14 -41 0 -8 8 -53 19 -100 11 -47 25 -119 31 -160 21 -145 30 -162 25 -50
-8 163 -73 438 -113 473 -21 18 -52 27 -72 20z"/>
<path d="M2975 4048 c-3 -24 -10 -72 -15 -108 -38 -269 -59 -364 -126 -570
-66 -202 -218 -511 -316 -642 -7 -9 -20 -27 -28 -39 -54 -80 -162 -207 -270
-318 -69 -70 -246 -214 -320 -258 -71 -43 -78 -59 -85 -168 -16 -252 -101
-485 -258 -705 -80 -113 -209 -261 -293 -335 -142 -127 -136 -122 -258 -211
-139 -102 -113 -85 -280 -185 -65 -39 -180 -103 -255 -141 -153 -79 -201 -110
-182 -116 31 -10 372 172 587 314 194 127 327 235 469 378 164 165 269 308
355 481 99 200 140 353 140 527 0 86 0 88 29 102 65 34 240 174 353 284 289
279 500 614 631 1004 73 216 122 452 134 641 6 108 0 143 -12 65z"/>
<path d="M1517 2369 c-46 -27 -36 -116 23 -197 55 -77 144 -98 164 -40 7 21 3
40 -19 90 -37 83 -70 127 -111 144 -39 16 -34 16 -57 3z m75 -46 c30 -32 71
-111 86 -165 10 -35 9 -38 -10 -38 -66 0 -158 120 -158 206 0 35 48 33 82 -3z"/>
<path d="M373 865 c-19 -13 -62 -84 -296 -490 -72 -124 -85 -171 -56 -201 14
-13 292 -81 611 -149 131 -28 161 -24 178 21 12 31 6 55 -18 77 -16 15 -437
117 -478 117 -19 -1 -19 -1 0 -15 15 -11 117 -40 221 -61 11 -2 31 -7 45 -9
97 -20 173 -43 189 -57 22 -19 18 -48 -9 -73 -15 -14 -22 -15 -42 -4 -27 14
-237 71 -348 94 -218 45 -336 80 -344 100 -2 6 13 37 33 68 31 49 59 96 157
266 11 20 36 63 54 96 18 33 44 77 57 97 12 21 23 41 23 46 0 14 45 52 61 52
8 0 20 -9 27 -21 11 -17 10 -25 -1 -47 -25 -46 -156 -276 -164 -288 -20 -26
-33 -56 -33 -76 0 -19 2 -20 14 -8 28 30 226 385 226 406 0 51 -67 88 -107 59z"/>
</g>
</svg>
