<?xml version="1.0" encoding="utf-8"?>
<!-- Generator: Adobe Illustrator 24.3.0, SVG Export Plug-In . SVG Version: 6.00 Build 0)  -->
<svg version="1.1" id="Layer_1" xmlns="http://www.w3.org/2000/svg" xmlns:xlink="http://www.w3.org/1999/xlink" x="0px" y="0px"
	 viewBox="0 0 100 30" style="enable-background:new 0 0 100 30;" xml:space="preserve">
<style type="text/css">
	.st0{fill:#6356E5;}
</style>
<g id="SvgjsG1007" transform="matrix(0.8091044553462269,0,0,0.8091044553462269,70,-0.8552234424807138)">
	<path class="st0" d="M-24.09,5.2c-0.12,0-0.24,0.01-0.36,0.02c2.34,0.13,4.54,1.15,6.15,2.86c1.61,1.7,2.51,3.96,2.51,6.3
		c0,2.37-0.92,4.64-2.56,6.35c-1.64,1.71-3.88,2.71-6.25,2.81c0.17,0.01,0.34,0.02,0.51,0.02c2.43,0,4.77-0.97,6.49-2.69
		c1.72-1.72,2.69-4.05,2.69-6.49c0-2.43-0.97-4.77-2.69-6.49C-19.32,6.17-21.66,5.2-24.09,5.2L-24.09,5.2L-24.09,5.2z M-28.1,13.35
		v-1.12h-1.27v2.24h0.04l-2.33,2.13l6.86-3.94l6.29,3.49l-6.28-5.85L-28.1,13.35z M-33.53,13.11
		C-33.53,13.11-33.53,13.11-33.53,13.11C-33.53,13.11-33.53,13.11-33.53,13.11z M-33.53,13.11c-0.03,0.16-0.05,0.31-0.07,0.47
		c-0.26,2.23,0.37,4.48,1.76,6.25c1.39,1.77,3.43,2.91,5.66,3.17c2.23,0.26,4.48-0.37,6.25-1.76c1.77-1.39,2.91-3.43,3.17-5.66
		c0.01-0.11,0.02-0.22,0.02-0.34c-0.37,2.13-1.55,4.04-3.29,5.34c-1.74,1.29-3.91,1.87-6.06,1.62c-2.17-0.26-4.16-1.35-5.55-3.04
		C-33.02,17.45-33.7,15.29-33.53,13.11L-33.53,13.11z M-24.68,14.21v1.05h1.05v-1.05H-24.68z M-26.02,14.21v1.05h1.05v-1.05H-26.02z
		 M-24.68,15.5v1.05h1.05V15.5H-24.68z M-26.05,15.5v1.05H-25V15.5H-26.05z"/>
</g>
<g id="SvgjsG1008" transform="matrix(0.9088505693364548,0,0,0.9088505693364548,-2.944674769883281,89.91149604013034)">
	<path class="st0" d="M40.96-74.82c0.07,0,0.13,0.03,0.18,0.08c0.05,0.05,0.08,0.11,0.08,0.18v4.98c0,0.07-0.03,0.13-0.08,0.18
		s-0.11,0.08-0.18,0.08H40.4c-0.07,0-0.13-0.03-0.18-0.08s-0.08-0.11-0.08-0.18v-3.36l-1.38,1.77c-0.05,0.06-0.12,0.1-0.2,0.1l0,0
		c-0.08,0-0.15-0.03-0.2-0.1l-1.41-1.78v3.37c0,0.07-0.03,0.13-0.08,0.18s-0.11,0.08-0.18,0.08h-0.56c-0.07,0-0.13-0.03-0.18-0.08
		c-0.05-0.05-0.08-0.11-0.08-0.18v-4.98c0-0.07,0.03-0.13,0.08-0.18c0.05-0.05,0.11-0.08,0.18-0.08h0.65c0.08,0,0.15,0.03,0.21,0.1
		l1.57,2.08l1.54-2.08c0.02-0.03,0.05-0.06,0.09-0.08c0.04-0.02,0.08-0.03,0.12-0.03C40.31-74.82,40.96-74.82,40.96-74.82z
		 M45.36-74.66l2.1,4.96c0.02,0.04,0.04,0.08,0.04,0.13c0,0.07-0.02,0.13-0.07,0.18s-0.11,0.08-0.19,0.08h-0.62
		c-0.05,0-0.1-0.01-0.15-0.04c-0.04-0.03-0.07-0.07-0.09-0.12l-0.55-1.29h-2.12l-0.54,1.29c-0.02,0.05-0.05,0.09-0.09,0.12
		c-0.04,0.03-0.09,0.04-0.15,0.04H42.3c-0.04,0-0.09-0.01-0.13-0.03c-0.04-0.02-0.07-0.05-0.09-0.09c-0.02-0.03-0.04-0.07-0.04-0.12
		c-0.01-0.04,0-0.08,0.02-0.12l2.11-4.99c0.02-0.05,0.05-0.09,0.09-0.12c0.04-0.03,0.09-0.04,0.15-0.04h0.7
		c0.05,0,0.1,0.01,0.15,0.04C45.31-74.75,45.34-74.71,45.36-74.66L45.36-74.66z M44.77-73.3l-0.62,1.49h1.24L44.77-73.3z
		 M51.85-70.38c0.07,0,0.14,0.03,0.19,0.08s0.07,0.11,0.07,0.18v0.54c0,0.07-0.02,0.13-0.07,0.18s-0.11,0.08-0.19,0.08h-3.28
		c-0.07,0-0.13-0.03-0.18-0.08c-0.05-0.05-0.08-0.11-0.08-0.18v-4.98c0-0.07,0.03-0.13,0.08-0.18c0.05-0.05,0.11-0.08,0.18-0.08
		h0.56c0.07,0,0.13,0.03,0.18,0.08c0.05,0.05,0.08,0.11,0.08,0.18v4.18C49.4-70.38,51.85-70.38,51.85-70.38z M58.38-72.04
		c0.21,0.13,0.37,0.3,0.48,0.49s0.17,0.41,0.17,0.65c0,0.55-0.21,0.98-0.64,1.28c-0.39,0.27-0.93,0.41-1.6,0.41
		c-0.76,0-1.35-0.16-1.76-0.49c-0.38-0.3-0.6-0.73-0.65-1.29c-0.01-0.08,0.01-0.15,0.07-0.2c0.05-0.05,0.12-0.08,0.19-0.08h0.58
		c0.07,0,0.13,0.02,0.18,0.07c0.05,0.04,0.08,0.1,0.08,0.17c0.01,0.13,0.04,0.24,0.1,0.33c0.06,0.09,0.15,0.17,0.27,0.24
		c0.23,0.13,0.54,0.19,0.94,0.19c0.34,0,0.61-0.04,0.8-0.12c0.14-0.06,0.24-0.15,0.29-0.26c0.03-0.06,0.04-0.14,0.04-0.23
		c0-0.06-0.01-0.11-0.03-0.15c-0.02-0.04-0.06-0.08-0.11-0.11c-0.14-0.09-0.32-0.18-0.55-0.25c-0.2-0.06-0.47-0.13-0.8-0.21
		c-0.3-0.06-0.59-0.15-0.86-0.26c-0.3-0.13-0.54-0.28-0.72-0.46c-0.22-0.22-0.33-0.51-0.33-0.86c0-0.49,0.19-0.89,0.56-1.2
		c0.36-0.29,0.89-0.44,1.58-0.44s1.23,0.16,1.63,0.49c0.37,0.3,0.57,0.7,0.59,1.18c0.01,0.07-0.01,0.13-0.07,0.19
		c-0.06,0.05-0.12,0.07-0.19,0.07h-0.58c-0.06,0-0.12-0.02-0.17-0.06c-0.05-0.04-0.08-0.1-0.08-0.16c-0.01-0.13-0.06-0.24-0.13-0.32
		c-0.1-0.12-0.26-0.22-0.48-0.28c-0.15-0.04-0.34-0.07-0.57-0.07s-0.42,0.02-0.55,0.07s-0.24,0.1-0.3,0.15s-0.1,0.11-0.12,0.16
		c-0.02,0.08-0.04,0.16-0.04,0.24c0,0.04,0.02,0.08,0.07,0.13c0.09,0.08,0.19,0.14,0.3,0.18c0.14,0.06,0.31,0.11,0.52,0.16
		c0.2,0.05,0.42,0.1,0.64,0.16c0.22,0.05,0.43,0.11,0.63,0.18C58-72.25,58.2-72.15,58.38-72.04z M63.87-74.82
		c0.07,0,0.13,0.03,0.18,0.08c0.05,0.05,0.07,0.11,0.07,0.18v0.54c0,0.07-0.02,0.13-0.07,0.18c-0.05,0.05-0.11,0.08-0.18,0.08h-1.48
		v4.18c0,0.07-0.03,0.13-0.08,0.18c-0.05,0.05-0.11,0.08-0.18,0.08h-0.56c-0.07,0-0.14-0.03-0.19-0.08s-0.07-0.11-0.07-0.18v-4.18
		h-1.48c-0.07,0-0.13-0.03-0.18-0.08c-0.05-0.05-0.08-0.11-0.08-0.18v-0.54c0-0.07,0.03-0.13,0.08-0.18
		c0.05-0.05,0.11-0.08,0.18-0.08C59.83-74.82,63.87-74.82,63.87-74.82z M67.47-74.82c0.82,0,1.49,0.27,2.02,0.82
		c0.51,0.54,0.77,1.2,0.77,1.99c0,0.78-0.26,1.45-0.77,1.99c-0.52,0.55-1.2,0.82-2.02,0.82s-1.49-0.27-2.02-0.82
		c-0.51-0.54-0.77-1.2-0.77-1.99s0.26-1.45,0.77-1.99C65.98-74.55,66.65-74.82,67.47-74.82z M67.47-70.27
		c0.51,0,0.93-0.16,1.24-0.49c0.3-0.32,0.46-0.73,0.46-1.24c0-0.51-0.15-0.92-0.46-1.25c-0.31-0.33-0.72-0.49-1.24-0.49
		c-0.51,0-0.93,0.16-1.24,0.49c-0.31,0.33-0.46,0.74-0.46,1.25c0,0.51,0.15,0.92,0.46,1.24C66.54-70.43,66.96-70.27,67.47-70.27z
		 M74.86-71.44l1.12,1.72c0.02,0.04,0.04,0.08,0.04,0.13c0,0.05-0.01,0.09-0.03,0.13c-0.02,0.04-0.05,0.07-0.1,0.1
		c-0.04,0.02-0.09,0.04-0.13,0.04h-0.67c-0.04,0-0.09-0.01-0.13-0.03c-0.04-0.02-0.07-0.05-0.09-0.09l-1.12-1.79h-1.33v1.65
		c0,0.07-0.03,0.13-0.08,0.18c-0.05,0.05-0.11,0.08-0.18,0.08h-0.56c-0.07,0-0.13-0.03-0.18-0.08s-0.08-0.11-0.08-0.18v-4.98
		c0-0.07,0.03-0.13,0.08-0.18c0.05-0.05,0.11-0.08,0.18-0.08h2.38c0.57,0,1.04,0.16,1.4,0.49c0.36,0.33,0.54,0.77,0.54,1.33
		c0,0.36-0.08,0.67-0.24,0.93c-0.16,0.26-0.39,0.45-0.69,0.58c-0.02,0.01-0.05,0.02-0.1,0.04L74.86-71.44z M72.41-73.76v1.48h1.46
		c0.43,0,0.72-0.12,0.88-0.37c0.05-0.09,0.07-0.2,0.07-0.34c0-0.23-0.08-0.42-0.23-0.55c-0.17-0.14-0.4-0.21-0.69-0.21H72.41
		L72.41-73.76z M80.97-74.82c0.07,0,0.14,0.03,0.19,0.08c0.05,0.05,0.07,0.11,0.07,0.18v0.54c0,0.07-0.02,0.13-0.07,0.18
		c-0.05,0.05-0.11,0.08-0.19,0.08h-2.83v1.15h2.5c0.07,0,0.14,0.03,0.19,0.08c0.05,0.05,0.07,0.11,0.07,0.18v0.55
		c0,0.07-0.02,0.13-0.07,0.18c-0.05,0.05-0.11,0.08-0.19,0.08h-2.5v1.15h2.83c0.07,0,0.14,0.03,0.19,0.08
		c0.05,0.05,0.07,0.11,0.07,0.18v0.54c0,0.07-0.02,0.13-0.07,0.18c-0.05,0.05-0.11,0.08-0.19,0.08h-3.66
		c-0.07,0-0.13-0.03-0.18-0.08s-0.08-0.11-0.08-0.18v-4.98c0-0.07,0.03-0.13,0.08-0.18c0.05-0.05,0.11-0.08,0.18-0.08H80.97z"/>
</g>
</svg>
