<?xml version="1.0" encoding="utf-8"?><!-- Generator: Adobe Illustrator 24.3.0, SVG Export Plug-In . SVG Version: 6.00 Build 0)  --><svg xmlns="http://www.w3.org/2000/svg" xmlns:xlink="http://www.w3.org/1999/xlink" version="1.1" id="Layer_1" x="0px" y="0px" viewBox="0 0 27.3 26.7" style="enable-background:new 0 0 27.3 26.7;" xml:space="preserve">
<style type="text/css">
	.st0{fill:#f97316;}
</style>
<g id="SvgjsG1007" transform="matrix(0.8091044553462269,0,0,0.8091044553462269,70,-0.8552234424807138)">
	<path class="st0" d="M-69.5,1.7c-0.2,0-0.4,0-0.6,0c4,0.2,7.9,2,10.7,5s4.4,6.9,4.4,10.9c0,4.1-1.6,8-4.4,11   c-2.8,3-6.7,4.7-10.8,4.9c0.3,0,0.6,0,0.9,0c4.2,0,8.3-1.7,11.2-4.7c3-3,4.7-7,4.7-11.2c0-4.2-1.7-8.3-4.7-11.2   C-61.2,3.3-65.3,1.7-69.5,1.7L-69.5,1.7L-69.5,1.7z M-76.4,15.8v-1.9h-2.2v3.9h0.1l-4,3.7l11.9-6.8l10.9,6l-10.9-10.1L-76.4,15.8z    M-85.8,15.4C-85.8,15.4-85.8,15.4-85.8,15.4L-85.8,15.4z M-85.8,15.4c-0.1,0.3-0.1,0.5-0.1,0.8c-0.5,3.9,0.6,7.8,3.1,10.8   c2.4,3.1,5.9,5,9.8,5.5c3.9,0.5,7.8-0.6,10.8-3.1s5-5.9,5.5-9.8c0-0.2,0-0.4,0-0.6c-0.6,3.7-2.7,7-5.7,9.3c-3,2.2-6.8,3.2-10.5,2.8   c-3.8-0.5-7.2-2.3-9.6-5.3C-84.9,22.9-86.1,19.1-85.8,15.4L-85.8,15.4z M-70.5,17.3v1.8h1.8v-1.8H-70.5z M-72.8,17.3v1.8h1.8v-1.8   H-72.8z M-70.5,19.5v1.8h1.8v-1.8H-70.5z M-72.9,19.5v1.8h1.8v-1.8H-72.9z"/>
</g>
</svg>